<svg id="Layer_1" data-name="Layer 1" xmlns="http://www.w3.org/2000/svg" viewBox="0 0 135.5 135.39"><defs><style>.cls-1,.cls-3{opacity:0.5;}.cls-2{fill:#1268b3;}.cls-3{fill:none;stroke:#fff;stroke-miterlimit:10;}</style></defs><g class="cls-1"><path class="cls-2" d="M64,65.32H56.45V86a67.22,67.22,0,0,0,7.64.31c9.42,0,18.12-2.69,18.12-10.54C82.21,68.38,73.94,65.32,64,65.32ZM80,50.91c0-6.36-6.3-8.86-15.51-8.86a50.63,50.63,0,0,0-8.07.49V60h8.27C74.33,60,80,56.15,80,50.91ZM67.75.5A67.2,67.2,0,1,0,135,67.69h0A67.22,67.22,0,0,0,67.75.5ZM85.88,86.72C81,90.19,73,91.8,61.47,91.8a136.27,136.27,0,0,1-14.14-.64V37.79A114.55,114.55,0,0,1,64,36.66c9.12,0,15,1.21,19.39,4a10.65,10.65,0,0,1,5.86,9.56c0,5.25-4.51,9.83-11.94,11.92v.17c6.72,1.34,14.55,5.55,14.55,13.6A13.27,13.27,0,0,1,85.88,86.72Z" transform="translate(0 0)"/></g><path class="cls-3" d="M64,65.32H56.45V86a67.22,67.22,0,0,0,7.64.31c9.42,0,18.12-2.69,18.12-10.54C82.21,68.38,73.94,65.32,64,65.32ZM80,50.91c0-6.36-6.3-8.86-15.51-8.86a50.63,50.63,0,0,0-8.07.49V60h8.27C74.33,60,80,56.15,80,50.91ZM67.75.5A67.2,67.2,0,1,0,135,67.69h0A67.22,67.22,0,0,0,67.75.5ZM85.88,86.72C81,90.19,73,91.8,61.47,91.8a136.27,136.27,0,0,1-14.14-.64V37.79A114.55,114.55,0,0,1,64,36.66c9.12,0,15,1.21,19.39,4a10.65,10.65,0,0,1,5.86,9.56c0,5.25-4.51,9.83-11.94,11.92v.17c6.72,1.34,14.55,5.55,14.55,13.6A13.27,13.27,0,0,1,85.88,86.72Z" transform="translate(0 0)"/></svg>